<!-- OLD LOGO -->
<svg version="1.1" xmlns="http://www.w3.org/2000/svg" xmlns:xlink="http://www.w3.org/1999/xlink" x="0px" y="0px" width="85px" height="75px" viewBox="0 0 155 175" enable-background="new 0 0 155 175" xml:space="preserve"><path d="M62.927,2.826H22.044c-10.965,0-19.861,10.408-19.861,23.252v85.87C13.034,69.395,42.223,13.738,62.927,2.826z"/><path d="M108.354,17.893c0,2.774-2.608,4.859-6.28,4.859c-2.617,0-5.762-2.781-9.421-2.781c-17.804,0-61.776,86.129-61.776,112.869c0,5.213,2.094,7.99,5.235,7.99c12.038,0,39.267-53.484,58.635-108.006c2.094-5.906,6.804-6.945,11.517-6.945c8.898,0,27.223,7.29,27.223,12.846c0,6.252-16.752,38.204-16.752,75.361c0,21.535,5.758,33.691,14.658,33.691c12.531,0,15.687-15.197,21.426-15.275V26.078c0-12.844-8.897-23.252-19.865-23.252H83.093C96.526,6.462,108.354,14.235,108.354,17.893z"/><path d="M130.341,163.754c-8.896,0-24.596-6.947-32.979-18.412c-6.803-9.721-9.947-20.486-9.947-30.908c0-6.945,1.047-14.234,2.094-19.445c-23.445,44.822-36.036,68.412-48.071,77.178h91.515c10.489,0,19.065-9.533,19.792-21.596C147.849,157.567,139.932,163.754,130.341,163.754z"/></svg>

<!-- NEW LOGO -->
<svg xmlns="http://www.w3.org/2000/svg" xmlns:xlink="http://www.w3.org/1999/xlink" version="1.1" id="Layer_1" x="0px" y="0px" width="1462.069px" height="1622.091px" viewBox="0 0 1462.069 1622.091" enable-background="new 0 0 1462.069 1622.091" xml:space="preserve"><g><path class="pink" d="M595.591 24.124H215.623c-101.906 0-184.588 96.732-184.588 216.119v798.058 C131.897 642.8 403.2 125.5 595.6 24.124z"/><path class="pink" d="M1017.784 164.167c0 25.775-24.251 45.163-58.378 45.163c-24.306 0-53.53-25.85-87.548-25.85 c-165.456 0-574.142 800.472-574.142 1048.994c0 48.4 19.5 74.3 48.7 74.26c111.872 0 364.947-497.078 544.945-1003.794 c19.458-54.892 63.242-64.549 107.042-64.549c82.683 0 253 67.7 253 119.387c0 58.105-155.69 355.056-155.69 700.4 c0 200.1 53.5 313.1 136.2 313.125c116.463 0 145.778-141.242 199.128-141.969V240.243 c0-119.387-82.702-216.119-184.625-216.119H783.022C907.873 57.9 1017.8 130.2 1017.8 164.167z"/><path class="pink" d="M1222.141 1519.785c-82.685 0-228.608-64.566-306.5-171.119c-63.242-90.342-92.448-190.398-92.448-287.258 c0-64.549 9.729-132.293 19.441-180.723C624.736 1297.3 507.7 1516.5 395.9 1597.967h850.544 c97.478 0 177.182-88.6 183.936-200.707C1384.856 1462.3 1311.3 1519.8 1222.1 1519.785z"/><path class="white" d="M842.634 880.686c-9.712 48.43-19.441 116.174-19.441 180.723c0 96.9 29.2 196.9 92.4 287.3 c77.891 106.6 223.8 171.1 306.5 171.119c89.127 0 162.715-57.506 208.204-122.525c0.344-5.064 0.689-10.184 0.689-15.395 v-152.531c-53.35 0.727-82.665 141.969-199.128 141.969c-82.719 0-136.232-112.979-136.232-313.125 c0-345.344 155.69-642.294 155.69-700.4c0-51.643-170.321-119.387-253.004-119.387c-43.801 0-87.584 9.657-107.042 64.5 C711.32 809.7 458.2 1306.7 346.4 1306.734c-29.199 0-48.657-25.813-48.657-74.26 c0-248.521 408.686-1048.994 574.142-1048.994c34.018 0 63.2 25.9 87.5 25.85c34.127 0 58.378-19.388 58.378-45.163 c0-33.999-109.912-106.244-234.762-140.044H595.591C403.17 125.5 131.9 642.8 31 1038.301v343.564 c0 119.3 82.7 216.1 184.6 216.102h180.243C507.727 1516.5 624.7 1297.3 842.6 880.686z"/></g></svg>
