<svg class="logoSVG" version="1.1" xmlns="http://www.w3.org/2000/svg" xmlns:xlink="http://www.w3.org/1999/xlink" x="0px" y="0px"
width="155px" height="175px" viewBox="0 0 155 175" enable-background="new 0 0 155 175" xml:space="preserve">
<path d="M62.927,2.826H22.044c-10.965,0-19.861,10.408-19.861,23.252v85.87
C13.034,69.395,42.223,13.738,62.927,2.826z"/>
<path d="M108.354,17.893c0,2.774-2.608,4.859-6.28,4.859c-2.617,0-5.762-2.781-9.421-2.781
c-17.804,0-61.776,86.129-61.776,112.869c0,5.213,2.094,7.99,5.235,7.99c12.038,0,39.267-53.484,58.635-108.006
c2.094-5.906,6.804-6.945,11.517-6.945c8.898,0,27.223,7.29,27.223,12.846c0,6.252-16.752,38.204-16.752,75.361
c0,21.535,5.758,33.691,14.658,33.691c12.531,0,15.687-15.197,21.426-15.275V26.078c0-12.844-8.897-23.252-19.865-23.252H83.093
C96.526,6.462,108.354,14.235,108.354,17.893z"/>
<path d="M130.341,163.754c-8.896,0-24.596-6.947-32.979-18.412c-6.803-9.721-9.947-20.486-9.947-30.908
c0-6.945,1.047-14.234,2.094-19.445c-23.445,44.822-36.036,68.412-48.071,77.178h91.515c10.489,0,19.065-9.533,19.792-21.596
C147.849,157.567,139.932,163.754,130.341,163.754z"/>
</svg>