<svg version="1.1" xmlns="http://www.w3.org/2000/svg" xmlns:xlink="http://www.w3.org/1999/xlink" x="0px" y="0px"
	 width="32px" height="32px" viewBox="0 0 32 32" enable-background="new 0 0 32 32" xml:space="preserve">
<path fill="#999999" d="M31.008,27.23l-7.58-6.446c-0.783-0.705-1.621-1.029-2.299-0.998c1.789-2.097,2.87-4.815,2.87-7.787
	c0-6.627-5.373-12-12-12s-12,5.373-12,12s5.373,12,12,12c2.972,0,5.69-1.081,7.787-2.87c-0.031,0.678,0.293,1.516,0.998,2.299
	l6.446,7.58c1.104,1.227,2.908,1.33,4.008,0.23S32.234,28.335,31.008,27.23z M12,20c-4.418,0-8-3.582-8-8s3.582-8,8-8s8,3.582,8,8
	S16.418,20,12,20z"/>
</svg>